<?xml version="1.0" standalone="no"?>
<!DOCTYPE svg PUBLIC "-//W3C//DTD SVG 20010904//EN"
 "http://www.w3.org/TR/2001/REC-SVG-20010904/DTD/svg10.dtd">
<svg version="1.0" xmlns="http://www.w3.org/2000/svg"
 width="328.000000pt" height="328.000000pt" viewBox="0 0 328.000000 328.000000"
 preserveAspectRatio="xMidYMid meet">
<metadata>
Created by potrace 1.11, written by Peter Selinger 2001-2013
</metadata>
<g transform="translate(0.000000,328.000000) scale(0.100000,-0.100000)"
fill="#000000" stroke="none">
<path d="M2694 3109 c-70 -9 -135 -49 -225 -138 -213 -212 -308 -480 -195
-550 45 -28 59 -27 135 11 46 23 91 59 154 121 84 85 89 88 102 69 23 -31 81
-54 118 -46 69 14 188 92 267 174 176 183 218 267 141 278 -17 3 -49 -23 -139
-116 -120 -122 -203 -182 -254 -182 -27 0 -28 2 -28 46 0 25 14 86 31 135 35
100 34 142 -4 176 -30 27 -44 30 -103 22z m-28 -194 c-18 -59 -53 -127 -95
-185 -73 -99 -201 -205 -201 -166 0 58 98 232 181 320 52 56 116 102 127 91 2
-2 -3 -29 -12 -60z"/>
<path d="M595 2993 c-176 -27 -449 -135 -501 -196 -33 -39 -35 -81 -6 -104 23
-17 47 -16 82 2 l29 15 -18 -43 c-52 -121 -128 -424 -137 -542 -7 -104 -7
-101 -2 -140 6 -41 14 -52 48 -70 59 -31 108 19 115 118 4 55 13 140 21 197 3
19 8 36 13 38 32 11 244 148 335 216 160 121 249 212 291 301 19 40 35 82 35
93 0 34 -20 69 -49 83 -14 8 -29 18 -32 23 -8 10 -176 17 -224 9z m143 -138
c12 -10 -78 -129 -143 -186 -79 -70 -311 -226 -321 -216 -5 5 36 134 71 220
15 37 25 78 23 91 -5 22 1 26 76 50 125 39 271 60 294 41z"/>
<path d="M2125 2929 c-87 -46 -156 -110 -218 -199 -21 -30 -22 -21 -2 26 8 19
14 35 14 37 -1 1 2 19 6 40 12 61 -40 101 -93 73 -31 -16 -44 -37 -70 -113
-13 -40 -37 -72 -104 -141 -136 -142 -229 -205 -273 -188 -24 9 -18 71 17 177
28 87 30 101 20 136 -19 62 -73 80 -170 53 -147 -39 -385 -334 -423 -523 -14
-69 1 -130 38 -154 66 -44 164 0 294 129 l87 87 23 -25 c72 -77 201 -33 362
123 51 50 59 54 54 32 -14 -55 -25 -161 -21 -187 6 -38 41 -65 73 -57 46 11
66 31 85 86 83 242 251 437 404 470 63 13 80 26 88 66 6 28 3 34 -27 52 -45
28 -113 27 -164 0z m-325 -199 c0 -10 -40 -90 -45 -90 -4 0 15 81 21 92 7 11
24 10 24 -2z m-534 -83 c-13 -45 -73 -161 -99 -194 -38 -48 -139 -143 -167
-158 l-32 -17 7 34 c18 82 122 254 196 324 92 86 119 89 95 11z"/>
<path d="M1715 2104 c-394 -119 -495 -147 -615 -174 -70 -16 -169 -47 -184
-59 -6 -5 -65 -25 -131 -45 -118 -36 -150 -55 -140 -85 2 -9 7 -32 9 -51 3
-19 12 -64 20 -100 8 -36 17 -76 20 -90 42 -216 81 -389 92 -407 16 -25 40
-24 119 3 28 9 64 20 80 24 29 8 190 56 350 105 129 40 542 165 650 196 312
92 325 97 327 135 0 10 -20 123 -46 249 -26 127 -50 241 -53 255 -3 14 -6 30
-7 35 -2 6 -6 31 -11 58 -7 45 -33 78 -60 76 -5 0 -194 -57 -420 -125z"/>
<path d="M2586 1419 c-44 -34 -49 -50 -162 -443 l-34 -120 -111 -111 c-117
-117 -197 -178 -289 -219 -80 -36 -113 -37 -130 -6 -10 18 -4 27 47 73 201
182 278 300 259 399 -9 47 -35 69 -90 75 -70 8 -150 -45 -230 -151 -117 -156
-179 -388 -131 -489 23 -48 73 -72 150 -71 110 2 240 79 400 235 l90 88 11
-59 c16 -91 67 -133 160 -133 116 0 302 154 418 348 43 71 46 102 11 111 -27
7 -30 5 -112 -93 -65 -77 -93 -105 -155 -156 -65 -52 -131 -78 -151 -58 -24
24 -15 134 27 306 4 18 17 58 83 259 l65 200 -24 18 c-31 24 -69 23 -102 -3z
m-562 -515 c-8 -44 -31 -80 -89 -141 l-56 -58 16 40 c23 57 59 117 93 153 36
39 42 40 36 6z m427 -57 c-12 -19 -28 -40 -36 -47 -12 -10 -13 -7 -5 22 9 29
49 73 58 63 3 -2 -5 -19 -17 -38z"/>
<path d="M1630 1174 c-25 -6 -63 -18 -85 -27 -22 -8 -96 -36 -165 -62 -69 -26
-177 -63 -240 -82 -63 -19 -145 -44 -182 -55 -74 -22 -95 -39 -104 -86 -6 -29
-4 -33 28 -47 20 -8 48 -12 64 -9 58 10 111 24 184 48 41 13 76 22 78 21 2 -2
-4 -31 -13 -66 -10 -35 -18 -71 -20 -79 -2 -8 -12 -51 -24 -96 -53 -208 -73
-362 -52 -402 14 -26 59 -51 84 -46 49 7 77 63 82 162 4 72 6 88 20 152 3 14
7 34 9 45 9 45 87 367 93 381 12 32 169 93 283 110 30 4 58 9 63 10 4 1 13 2
20 3 24 2 47 26 57 59 8 30 6 37 -15 58 -21 21 -34 25 -73 23 -26 -2 -67 -8
-92 -15z"/>
</g>
</svg>
